<svg width="97" height="98" viewBox="0 0 97 98" fill="none" xmlns="http://www.w3.org/2000/svg">
<path d="M96 1H6.92795V24.9084H96V1Z" fill="#F5F4EF" stroke="#D52031" stroke-width="0.5" stroke-miterlimit="10"/>
<path d="M71.0649 33.7692H63.2792V40.0124H71.0649V33.7692Z" fill="#F5F4EF" stroke="#D31424" stroke-width="0.5" stroke-miterlimit="10"/>
<path d="M22.457 29.6622H17.3409V38.3989H22.457V29.6622Z" fill="#F5F4EF" stroke="#D31424" stroke-width="0.5" stroke-miterlimit="10"/>
<path d="M17.3409 30.4708C22.3329 30.4708 22.3577 30.4708 22.3577 30.4708H17.3409Z" fill="#F5F4EF"/>
<path d="M17.3409 30.4708C22.3329 30.4708 22.3577 30.4708 22.3577 30.4708" stroke="#D31424" stroke-width="0.5" stroke-miterlimit="10"/>
<path d="M17.3409 31.2719C22.3329 31.2719 22.3577 31.2719 22.3577 31.2719H17.3409Z" fill="#F5F4EF"/>
<path d="M17.3409 31.2719C22.3329 31.2719 22.3577 31.2719 22.3577 31.2719" stroke="#D31424" stroke-width="0.5" stroke-miterlimit="10"/>
<path d="M17.2558 36.8795C22.2478 36.8795 22.2726 36.8795 22.2726 36.8795H17.2558Z" fill="#F5F4EF"/>
<path d="M17.2558 36.8795C22.2478 36.8795 22.2726 36.8795 22.2726 36.8795" stroke="#D31424" stroke-width="0.5" stroke-miterlimit="10"/>
<path d="M17.2558 37.6806C22.2478 37.6806 22.2726 37.6806 22.2726 37.6806H17.2558Z" fill="#F5F4EF"/>
<path d="M17.2558 37.6806C22.2478 37.6806 22.2726 37.6806 22.2726 37.6806" stroke="#D31424" stroke-width="0.5" stroke-miterlimit="10"/>
<path d="M17.4898 33.1186C22.4818 33.1186 22.5066 33.1186 22.5066 33.1186H17.4898Z" fill="#F5F4EF"/>
<path d="M17.4898 33.1186C22.4818 33.1186 22.5066 33.1186 22.5066 33.1186" stroke="#D31424" stroke-width="0.5" stroke-miterlimit="10"/>
<path d="M17.2558 35.0893C22.2478 35.0893 22.2726 35.0893 22.2726 35.0893H17.2558Z" fill="#F5F4EF"/>
<path d="M17.2558 35.0893C22.2478 35.0893 22.2726 35.0893 22.2726 35.0893" stroke="#D31424" stroke-width="0.5" stroke-miterlimit="10"/>
<path d="M70.0828 41.938H15.047V65.5606H70.0828V41.938Z" fill="#F5F4EF" stroke="#D52031" stroke-width="0.5" stroke-miterlimit="10"/>
<path d="M69.1788 43.0174H15.8306V64.3345H69.1788V43.0174Z" fill="#F5F4EF" stroke="#D52031" stroke-width="0.5" stroke-miterlimit="10"/>
<path d="M27.9666 43.9313H16.9013V63.3265H27.9666V43.9313Z" fill="#F5F4EF" stroke="#D31424" stroke-width="0.5" stroke-miterlimit="10"/>
<path d="M54.8765 43.9313H29.5904V63.3265H54.8765V43.9313Z" fill="#F5F4EF" stroke="#D52031" stroke-width="0.5" stroke-miterlimit="10"/>
<path d="M48.6578 51.5397H44.857V58.5802H48.6578V51.5397Z" fill="#F5F4EF" stroke="#D52031" stroke-width="0.5" stroke-miterlimit="10"/>
<path d="M48.6613 57.3654H44.857" stroke="#D52031" stroke-width="0.5" stroke-miterlimit="10"/>
<path d="M68.3314 43.9313H56.0819V55.7031H68.3314V43.9313Z" fill="#F5F4EF" stroke="#D52031" stroke-width="0.5" stroke-miterlimit="10"/>
<path d="M62.4885 53.6308V45.5861H58.0815V53.6759H66.8175V45.5861H61.7794" fill="#F5F4EF"/>
<path d="M62.4885 53.6308V45.5861H58.0815V53.6759H66.8175V45.5861H61.7794" stroke="#D52031" stroke-width="0.5" stroke-miterlimit="10"/>
<path d="M68.3349 55.7031H64.5023V63.3303H68.3349V55.7031Z" fill="#F5F4EF" stroke="#D52031" stroke-width="0.5" stroke-miterlimit="10"/>
<path d="M64.5023 55.7031H60.6697V63.3303H64.5023V55.7031Z" fill="#F5F4EF" stroke="#D52031" stroke-width="0.5" stroke-miterlimit="10"/>
<path d="M60.6697 55.7031H56.0819V63.3303H60.6697V55.7031Z" fill="#F5F4EF" stroke="#D52031" stroke-width="0.5" stroke-miterlimit="10"/>
<path d="M93.1991 29.6622H74.3693V83.3875H93.1991V29.6622Z" fill="#F5F4EF" stroke="#D52031" stroke-width="0.5" stroke-miterlimit="10"/>
<path d="M76.3654 81.1347V44.3074H91.1995L91.0187 81.1535L76.3654 81.1347Z" fill="#F5F4EF" stroke="#D52031" stroke-width="0.5" stroke-miterlimit="10"/>
<path d="M89.2672 46.248H78.404V79.4422H89.2672V46.248Z" fill="#F5F4EF" stroke="#D52031" stroke-width="0.5" stroke-miterlimit="10"/>
<path d="M89.214 63.3265H78.3508" stroke="#D52031" stroke-width="0.5" stroke-miterlimit="10"/>
<path d="M91.203 34.4499H76.3654V41.2986H91.203V34.4499Z" fill="#F5F4EF" stroke="#D52031" stroke-width="0.5" stroke-miterlimit="10"/>
<path d="M90.2067 35.7023H77.3581V40.0086H90.2067V35.7023Z" fill="#F5F4EF" stroke="#D52031" stroke-width="0.5" stroke-miterlimit="10"/>
<path d="M74.3693 83.0791V88.5738H93.6281V85.8246H39.3156V88.5738H93.6281" fill="#F5F4EF"/>
<path d="M74.3693 83.0791V88.5738H93.6281V85.8246H39.3156V88.5738H93.6281" stroke="#D52031" stroke-width="0.5" stroke-miterlimit="10"/>
<path d="M74.66 83.0791L76.4221 81.2099C76.4398 81.1911 76.4646 81.1798 76.4894 81.1798H91.0754C91.1002 81.1798 91.125 81.1911 91.1427 81.2099L93.036 83.2182C93.0963 83.2822 93.0537 83.3912 92.9686 83.3912H74.7841C74.6281 83.3875 74.5536 83.1919 74.66 83.0791Z" fill="#F5F4EF" stroke="#D52031" stroke-width="0.5" stroke-miterlimit="10"/>
<path d="M30.9767 76.8284L34.3874 73.2103L37.7059 76.7306V97.2466H30.9767V76.8284Z" fill="#F5F4EF" stroke="#D52031" stroke-width="0.5" stroke-miterlimit="10"/>
<path d="M34.3874 73.2103L36.1069 71.3863L39.5637 75.0532C39.5885 75.0795 39.585 75.1209 39.5602 75.1435L37.7095 76.7343L34.3874 73.2103Z" fill="#F5F4EF" stroke="#D52031" stroke-width="0.5" stroke-miterlimit="10"/>
<path d="M39.6063 75.166V93.7188C39.6063 93.7263 39.6063 93.7301 39.6027 93.7339L37.7626 97.1413C37.7485 97.1714 37.7059 97.1601 37.7059 97.1262V76.7456C37.7059 76.7343 37.7095 76.7268 37.7166 76.7193L39.5566 75.1397C39.5779 75.1247 39.6063 75.1397 39.6063 75.166Z" fill="#F5F4EF" stroke="#D52031" stroke-width="0.5" stroke-miterlimit="10"/>
<path d="M1 76.7306L4.66598 74.0603L7.6087 76.7306V97.2466L1 97.1563V76.7306Z" fill="#F5F4EF" stroke="#D52031" stroke-width="0.5" stroke-miterlimit="10"/>
<path d="M4.75815 73.9813L11.9235 71.3524C11.9412 71.3449 11.9625 71.3487 11.9767 71.3637L14.4159 73.5375C14.4478 73.5676 14.4407 73.6203 14.4017 73.6353L7.63705 76.6742C7.61932 76.6817 7.5945 76.6779 7.58032 76.6629L4.73688 74.0791C4.70852 74.0528 4.71561 73.9964 4.75815 73.9813Z" fill="#F5F4EF" stroke="#D52031" stroke-width="0.5" stroke-miterlimit="10"/>
<path d="M14.4195 73.7331V90.7815L7.63351 97.224C7.62287 97.2316 7.60869 97.224 7.60869 97.2127L7.6406 76.6742L14.2493 73.6165C14.3308 73.5789 14.4195 73.6391 14.4195 73.7331Z" fill="#F5F4EF" stroke="#D52031" stroke-width="0.5" stroke-miterlimit="10"/>
<path d="M94.284 24.9084V88.5738H93.6281" fill="#F5F4EF"/>
<path d="M94.284 24.9084V88.5738H93.6281" stroke="#D52031" stroke-width="0.5" stroke-miterlimit="10"/>
<path d="M11.0123 24.9084V71.6871" stroke="#D52031" stroke-width="0.5" stroke-miterlimit="10"/>
<path d="M14.4762 76.9525L18.4364 92.0001C18.4577 92.0753 18.5215 92.1279 18.596 92.1279H30.8136C30.9057 92.1279 30.9767 92.049 30.9767 91.9549V77.0014C30.9767 76.9074 30.9022 76.8284 30.8136 76.8284L14.6357 76.7343C14.5258 76.7306 14.4478 76.8434 14.4762 76.9525Z" fill="#F5F4EF" stroke="#D52031" stroke-width="0.5" stroke-miterlimit="10"/>
<path d="M17.7238 88.5287H30.9767V92.0828H18.6031C18.5322 92.0828 18.4684 92.0339 18.4506 91.9587L17.5997 88.7092C17.5714 88.6227 17.6352 88.5287 17.7238 88.5287Z" fill="#F5F4EF" stroke="#D52031" stroke-width="0.5" stroke-miterlimit="10"/>
<path d="M18.4506 91.9587V97.2466H30.9767V91.9549L18.4506 91.9587Z" fill="#F5F4EF" stroke="#D52031" stroke-width="0.5" stroke-miterlimit="10"/>
<path d="M18.4506 97.2466H15.2066C15.1108 97.2466 15.0222 97.1827 14.9903 97.0849L13.1857 91.9512" fill="#F5F4EF"/>
<path d="M18.4506 97.2466H15.2066C15.1108 97.2466 15.0222 97.1827 14.9903 97.0849L13.1857 91.9512" stroke="#D52031" stroke-width="0.5" stroke-miterlimit="10"/>
<path d="M7.60869 97.2127H15.047" stroke="#D52031" stroke-width="0.5" stroke-miterlimit="10"/>
<path d="M12.1114 92.9704L13.5828 97.1563" stroke="#D52031" stroke-width="0.5" stroke-miterlimit="10"/>
<path d="M19.8121 97.1563L20.5389 92.9704H30.9767" fill="#F5F4EF"/>
<path d="M19.8121 97.1563L20.5389 92.9704H30.9767" stroke="#D52031" stroke-width="0.5" stroke-miterlimit="10"/>
</svg>
