<svg width="28" height="28" viewBox="0 0 28 28" fill="none" xmlns="http://www.w3.org/2000/svg">
<path d="M13.2972 0.855533C21.4572 0.855533 27.4572 6.85553 27.4572 14.2955C27.4572 18.4235 27.4572 23.2715 27.4572 27.0155H16.4172L15.4572 24.1355C15.4572 24.1355 13.5372 27.7355 9.21719 27.7355C3.93719 27.7355 0.577188 24.3755 0.577188 19.8155C0.577188 15.2555 3.93719 11.8955 12.0972 11.8955H15.9372C15.9372 11.8955 15.4572 9.25553 11.6172 9.25553C9.21719 9.25553 7.29719 11.1755 7.29719 11.1755L3.21719 4.69553C3.21719 4.69553 6.81719 0.855533 13.2972 0.855533ZM13.5372 20.0555C14.7372 20.0555 15.9372 18.8555 15.9372 15.9755C13.2972 15.9755 12.0972 17.1755 12.0972 18.6155C12.0972 19.3355 12.8172 20.0555 13.5372 20.0555Z" fill="#D31B29"/>
</svg>
