<svg width="38" height="39" viewBox="0 0 38 39" fill="none" xmlns="http://www.w3.org/2000/svg">
<rect x="0.15" y="0.165625" width="37.7" height="37.7" fill="#F5F4EF" stroke="#82817C" stroke-width="0.3"/>
<path d="M19 36.0156C28.3888 36.0156 36 28.4045 36 19.0156C36 9.62678 28.3888 2.01562 19 2.01562C9.61116 2.01562 2 9.62678 2 19.0156C2 28.4045 9.61116 36.0156 19 36.0156Z" stroke="#D31B29" stroke-width="0.7" stroke-miterlimit="10"/>
<path d="M19.0006 33.4543C26.9745 33.4543 33.4387 26.9902 33.4387 19.0162C33.4387 11.0423 26.9745 4.57812 19.0006 4.57812C11.0267 4.57812 4.5625 11.0423 4.5625 19.0162C4.5625 26.9902 11.0267 33.4543 19.0006 33.4543Z" stroke="#D31B29" stroke-width="0.7" stroke-miterlimit="10"/>
<path d="M5.23828 23.3965C5.23828 23.3965 5.76573 24.1719 7.0078 23.3965C8.24986 22.6211 9.05684 22.7767 10.2357 23.3965C11.4146 24.0163 11.5069 23.7757 12.625 23.3066C13.7431 22.8374 14.1758 22.5603 15.6974 23.3211C17.219 24.0819 17.8388 23.7805 18.3662 23.309C18.8937 22.8374 20.1042 22.118 21.3146 23.3163" stroke="#D31B29" stroke-width="0.7" stroke-miterlimit="10"/>
<path d="M5.76953 24.8106C5.76953 24.8106 6.29698 25.5859 7.53905 24.8106C8.78111 24.0352 9.58809 24.1907 10.767 24.8106C11.9458 25.4304 12.0382 25.1897 13.1563 24.7206C14.2744 24.2515 14.707 23.9744 16.2286 24.7352C17.7502 25.496 18.37 25.1946 18.8975 24.7231C19.4249 24.2515 20.6354 23.532 21.8459 24.7303" stroke="#D31B29" stroke-width="0.7" stroke-miterlimit="10"/>
<path d="M6.71094 26.5996C6.71094 26.5996 7.23839 27.375 8.48045 26.5996C9.72252 25.8242 10.5295 25.9798 11.7084 26.5996C12.8872 27.2194 12.9796 26.9788 14.0977 26.5097C15.2158 26.0406 15.6485 25.7635 17.17 26.5243C18.6916 27.2826 19.3115 26.9837 19.8389 26.5121C20.3664 26.0406 21.5768 25.3211 22.7873 26.5194" stroke="#D31B29" stroke-width="0.7" stroke-miterlimit="10"/>
<path d="M7.94727 28.3066C7.94727 28.3066 8.47472 29.082 9.71678 28.3066C10.9588 27.5313 11.7658 27.6868 12.9447 28.3066C14.1236 28.9265 14.2159 28.6858 15.334 28.2167C16.4521 27.7476 16.8848 27.4705 18.4064 28.2313C19.928 28.9897 20.5478 28.6907 21.0752 28.2191C21.6027 27.7476 22.8131 27.0281 24.0236 28.2264" stroke="#D31B29" stroke-width="0.7" stroke-miterlimit="10"/>
<path d="M9.92969 30.1934C9.92969 30.1934 10.3696 30.9687 11.4051 30.1934C12.4406 29.418 13.1138 29.5736 14.0983 30.1934C15.0827 30.8132 15.1605 30.5726 16.0914 30.1034C17.0223 29.6343 17.3869 29.3572 18.6557 30.118C19.9245 30.8788 20.4423 30.5774 20.8822 30.1059C21.3222 29.6343 22.3333 28.9148 23.342 30.1132" stroke="#D31B29" stroke-width="0.7" stroke-miterlimit="10"/>
<path d="M23.8337 21.9782C23.739 22.1508 23.6199 22.5203 23.581 22.7123C23.3379 23.8668 22.6646 28.0573 25.6543 28.3563C29.1253 28.7038 31.116 27.7146 30.7222 24.9752C30.3285 22.2359 30.2264 21.6963 29.2128 20.2281C28.1992 18.76 26.7238 18.0649 25.3869 19.6691C24.4268 20.8188 24.0574 21.5674 23.8337 21.9782Z" stroke="#D31B29" stroke-width="0.7" stroke-miterlimit="10"/>
<path d="M27.0578 27.2602C28.1264 27.2602 28.9927 26.394 28.9927 25.3254C28.9927 24.2569 28.1264 23.3906 27.0578 23.3906C25.9893 23.3906 25.123 24.2569 25.123 25.3254C25.123 26.394 25.9893 27.2602 27.0578 27.2602Z" stroke="#D31B29" stroke-width="0.7" stroke-miterlimit="10"/>
<path d="M30.9668 18.0586C31.8836 18.0586 32.6269 17.3153 32.6269 16.3984C32.6269 15.4815 31.8836 14.7383 30.9668 14.7383C30.0499 14.7383 29.3066 15.4815 29.3066 16.3984C29.3066 17.3153 30.0499 18.0586 30.9668 18.0586Z" stroke="#D31B29" stroke-width="0.7" stroke-miterlimit="10"/>
<path d="M30.9651 17.2154C31.4162 17.2154 31.7818 16.8498 31.7818 16.3987C31.7818 15.9477 31.4162 15.582 30.9651 15.582C30.5141 15.582 30.1484 15.9477 30.1484 16.3987C30.1484 16.8498 30.5141 17.2154 30.9651 17.2154Z" stroke="#D31B29" stroke-width="0.7" stroke-miterlimit="10"/>
<path d="M26.4629 17.2421C27.3797 17.2421 28.123 16.4989 28.123 15.582C28.123 14.6651 27.3797 13.9219 26.4629 13.9219C25.546 13.9219 24.8027 14.6651 24.8027 15.582C24.8027 16.4989 25.546 17.2421 26.4629 17.2421Z" stroke="#D31B29" stroke-width="0.7" stroke-miterlimit="10"/>
<path d="M26.4612 16.399C26.9123 16.399 27.2779 16.0334 27.2779 15.5823C27.2779 15.1313 26.9123 14.7656 26.4612 14.7656C26.0102 14.7656 25.6445 15.1313 25.6445 15.5823C25.6445 16.0334 26.0102 16.399 26.4612 16.399Z" stroke="#D31B29" stroke-width="0.7" stroke-miterlimit="10"/>
<path d="M28.7187 13.1601C29.6356 13.1601 30.3789 12.4169 30.3789 11.5C30.3789 10.5831 29.6356 9.83984 28.7187 9.83984C27.8019 9.83984 27.0586 10.5831 27.0586 11.5C27.0586 12.4169 27.8019 13.1601 28.7187 13.1601Z" stroke="#D31B29" stroke-width="0.7" stroke-miterlimit="10"/>
<path d="M28.7171 12.317C29.1681 12.317 29.5338 11.9513 29.5338 11.5003C29.5338 11.0492 29.1681 10.6836 28.7171 10.6836C28.266 10.6836 27.9004 11.0492 27.9004 11.5003C27.9004 11.9513 28.266 12.317 28.7171 12.317Z" stroke="#D31B29" stroke-width="0.7" stroke-miterlimit="10"/>
<path d="M25.3984 10.25C26.3153 10.25 27.0586 9.50669 27.0586 8.58982C27.0586 7.67296 26.3153 6.92969 25.3984 6.92969C24.4816 6.92969 23.7383 7.67296 23.7383 8.58982C23.7383 9.50669 24.4816 10.25 25.3984 10.25Z" stroke="#D31B29" stroke-width="0.7" stroke-miterlimit="10"/>
<path d="M25.3968 9.40684C25.8478 9.40684 26.2135 9.04119 26.2135 8.59014C26.2135 8.13909 25.8478 7.77344 25.3968 7.77344C24.9457 7.77344 24.5801 8.13909 24.5801 8.59014C24.5801 9.04119 24.9457 9.40684 25.3968 9.40684Z" stroke="#D31B29" stroke-width="0.7" stroke-miterlimit="10"/>
<path d="M22.7812 14.7382C23.6981 14.7382 24.4414 13.995 24.4414 13.0781C24.4414 12.1612 23.6981 11.418 22.7812 11.418C21.8644 11.418 21.1211 12.1612 21.1211 13.0781C21.1211 13.995 21.8644 14.7382 22.7812 14.7382Z" stroke="#D31B29" stroke-width="0.7" stroke-miterlimit="10"/>
<path d="M22.7815 13.8951C23.2326 13.8951 23.5982 13.5295 23.5982 13.0784C23.5982 12.6274 23.2326 12.2617 22.7815 12.2617C22.3305 12.2617 21.9648 12.6274 21.9648 13.0784C21.9648 13.5295 22.3305 13.8951 22.7815 13.8951Z" stroke="#D31B29" stroke-width="0.7" stroke-miterlimit="10"/>
<path d="M21.9687 20.082C22.8856 20.082 23.6289 19.3387 23.6289 18.4219C23.6289 17.505 22.8856 16.7617 21.9687 16.7617C21.0519 16.7617 20.3086 17.505 20.3086 18.4219C20.3086 19.3387 21.0519 20.082 21.9687 20.082Z" stroke="#D31B29" stroke-width="0.7" stroke-miterlimit="10"/>
<path d="M21.9671 19.235C22.4181 19.235 22.7838 18.8693 22.7838 18.4183C22.7838 17.9672 22.4181 17.6016 21.9671 17.6016C21.516 17.6016 21.1504 17.9672 21.1504 18.4183C21.1504 18.8693 21.516 19.235 21.9671 19.235Z" stroke="#D31B29" stroke-width="0.7" stroke-miterlimit="10"/>
<path d="M9.20393 10.8402C9.20393 10.8402 6.69063 9.43283 9.57582 7.57095C12.461 5.70906 16.7122 2.73151 18.2338 5.08925C19.7554 7.44698 19.9401 10.2641 18.0783 10.8426C16.2164 11.4211 12.4926 12.7677 11.7488 12.4201C11.0026 12.0701 9.20393 10.8402 9.20393 10.8402Z" fill="#F5F4EF" stroke="#D31B29" stroke-width="0.7" stroke-miterlimit="10"/>
<path d="M10.553 10.6509C10.4679 10.1308 10.2735 9.18524 11.1728 8.81578C12.0722 8.44632 16.5422 5.08959 17.7502 7.15565C18.9582 9.2217 18.246 10.0384 17.7502 10.0651C17.2543 10.0919 13.8101 11.5284 13.0639 11.7253C12.3201 11.9246 10.7693 11.9854 10.553 10.6509Z" fill="#F5F4EF" stroke="#D31B29" stroke-width="0.7" stroke-miterlimit="10"/>
<path d="M4.31114 15.6234C4.31114 15.6234 6.85604 12.8889 7.69218 11.8364C8.52833 10.784 11.3236 11.8996 11.7417 12.6604C12.1597 13.4212 12.0212 15.7328 10.6236 17.6724C9.22592 19.6121 7.08938 21.8289 5.30528 19.8746C3.52118 17.9204 3.66216 16.6832 3.90765 16.2432C4.17259 15.7741 4.31114 15.6234 4.31114 15.6234Z" fill="#F5F4EF" stroke="#D31B29" stroke-width="0.7" stroke-miterlimit="10"/>
<path d="M5.22383 17.1257C5.21654 16.992 5.24328 16.8632 5.30161 16.7417C5.53739 16.2434 6.40999 14.5492 7.64719 13.9245C9.10559 13.188 10.3501 13.2367 10.9213 13.8954C11.4949 14.5541 11.2203 15.6697 10.474 16.3989C9.72783 17.1281 9.07399 17.8719 8.51494 18.5865C7.95589 19.3011 6.1572 19.8286 5.62975 18.5865C5.3162 17.8427 5.23598 17.3785 5.22383 17.1257Z" fill="#F5F4EF" stroke="#D31B29" stroke-width="0.7" stroke-miterlimit="10"/>
<path d="M11.7453 12.6599C11.7453 12.6599 14.227 8.91669 15.9334 9.40768C17.6397 9.89867 19.5332 11.7606 19.7179 12.9394C19.888 14.0186 19.47 14.7089 17.6081 16.3982C15.7462 18.0875 14.0399 19.4536 14.0399 19.4536C14.0399 19.4536 11.3394 21.3276 10.3161 18.4205C9.29281 15.5135 11.7453 12.6599 11.7453 12.6599Z" fill="#F5F4EF" stroke="#D31B29" stroke-width="0.7" stroke-miterlimit="10"/>
<path d="M12.557 14.425C12.5959 14.3642 12.6373 14.3083 12.6859 14.2573C13.0991 13.8101 15.1797 11.6565 16.4607 12.1037C17.8875 12.5996 18.4514 13.3458 18.4173 14.1212C18.3833 14.8966 17.5763 15.1153 16.2735 16.4011C14.9707 17.6869 14.0081 19.3495 12.7685 18.7491C11.5289 18.1488 10.9698 18.1998 11.1862 17.213C11.3757 16.3549 12.3164 14.809 12.557 14.425Z" fill="#F5F4EF" stroke="#D31B29" stroke-width="0.7" stroke-miterlimit="10"/>
</svg>
