<svg width="38" height="39" viewBox="0 0 38 39" fill="none" xmlns="http://www.w3.org/2000/svg">
<rect x="0.15" y="0.165625" width="37.7" height="37.7" fill="#F5F4EF" stroke="#82817C" stroke-width="0.3"/>
<path d="M19 36.0156C28.3888 36.0156 36 28.4045 36 19.0156C36 9.62678 28.3888 2.01562 19 2.01562C9.61116 2.01562 2 9.62678 2 19.0156C2 28.4045 9.61116 36.0156 19 36.0156Z" stroke="#D31B29" stroke-width="0.7" stroke-miterlimit="10"/>
<path d="M19.0006 33.4543C26.9745 33.4543 33.4387 26.9902 33.4387 19.0162C33.4387 11.0423 26.9745 4.57812 19.0006 4.57812C11.0267 4.57812 4.5625 11.0423 4.5625 19.0162C4.5625 26.9902 11.0267 33.4543 19.0006 33.4543Z" stroke="#D31B29" stroke-width="0.7" stroke-miterlimit="10"/>
<path d="M14.2207 9.04836C14.2207 9.04836 14.719 9.77999 15.8881 9.04836C17.0573 8.31674 17.8181 8.46258 18.9289 9.04836C20.0397 9.63415 20.1272 9.40567 21.1797 8.96329C22.2321 8.52091 22.6429 8.26083 24.0746 8.97544C25.5087 9.69006 26.092 9.4081 26.5903 8.96329C27.0886 8.51848 28.2286 7.84033 29.3685 8.97058" stroke="#D31B29" stroke-width="0.7" stroke-miterlimit="10"/>
<path d="M14.457 10.4514C14.457 10.4514 14.9553 11.183 16.1245 10.4514C17.2936 9.71974 18.0544 9.86558 19.1652 10.4514C20.276 11.0372 20.3635 10.8087 21.416 10.3663C22.4685 9.92391 22.8793 9.66383 24.3109 10.3784C25.7426 11.0931 26.3283 10.8111 26.8266 10.3663C27.3249 9.92391 29.2573 9.02214 30.3973 10.1524" stroke="#D31B29" stroke-width="0.7" stroke-miterlimit="10"/>
<path d="M16.5371 12.2331C16.5371 12.2331 17.0159 13.0085 18.1462 12.2331C19.2765 11.4578 20.0081 11.6133 21.0824 12.2331C22.1568 12.853 22.2394 12.6123 23.2554 12.1432C24.2715 11.6741 24.6676 11.397 26.0507 12.1578C27.4337 12.9162 27.9976 12.6172 28.4789 12.1456C28.9578 11.6741 30.5668 10.8817 31.6679 12.08" stroke="#D31B29" stroke-width="0.7" stroke-miterlimit="10"/>
<path d="M17.3965 14.4402C17.3965 14.4402 17.8753 15.2156 19.0056 14.4402C20.1358 13.6648 20.8675 13.8204 21.9418 14.4402C23.0162 15.06 23.0988 14.8194 24.1148 14.3503C25.1308 13.8812 25.527 13.6041 26.9101 14.3649C28.2931 15.1232 28.857 14.8243 29.3383 14.3527C29.8171 13.8812 31.5939 13.2225 32.695 14.4208" stroke="#D31B29" stroke-width="0.7" stroke-miterlimit="10"/>
<path d="M18.0977 16.6902C18.0977 16.6902 18.5765 17.4656 19.7067 16.6902C20.837 15.9148 21.5686 16.0704 22.643 16.6902C23.7149 17.31 23.8 17.0694 24.816 16.6002C25.832 16.1311 26.2282 15.854 27.6112 16.6148C28.9943 17.3732 29.5582 17.0742 30.0395 16.6027C30.5183 16.1311 32.1274 15.3387 33.2285 16.537" stroke="#D31B29" stroke-width="0.7" stroke-miterlimit="10"/>
<path d="M16.537 21.6326C16.537 21.6326 16.2963 20.2666 17.2467 20.5558C17.5894 20.6604 17.7839 20.8062 17.886 20.9593C18.0683 21.2316 17.9589 21.5257 17.8665 21.6302C17.7231 21.7979 17.0061 22.3132 16.537 21.6326Z" stroke="#D31B29" stroke-width="0.7" stroke-miterlimit="10"/>
<path d="M17.9298 21.0377C17.9298 21.0377 17.8787 18.6654 17.2468 18.4977C16.6148 18.3324 15.2707 19.1855 15.2196 19.414C15.1686 19.6425 15.521 21.4047 16.5905 21.6526" stroke="#D31B29" stroke-width="0.7" stroke-miterlimit="10"/>
<path d="M11.4772 21.9821C11.4772 21.9821 12.695 21.3185 12.7217 22.3151C12.7314 22.6724 12.6536 22.9033 12.5418 23.0491C12.3425 23.3092 12.029 23.2995 11.9001 23.2436C11.6984 23.1585 10.9789 22.6432 11.4772 21.9821Z" stroke="#D31B29" stroke-width="0.7" stroke-miterlimit="10"/>
<path d="M12.4825 23.1162C12.4825 23.1162 14.7163 22.3141 14.6725 21.6627C14.6288 21.0112 13.3916 20.0074 13.1606 20.0317C12.9273 20.056 11.3693 20.9505 11.4738 22.0418" stroke="#D31B29" stroke-width="0.7" stroke-miterlimit="10"/>
<path d="M9.46924 21.613C9.46924 21.613 8.65011 20.4949 9.62967 20.3345C9.98211 20.2761 10.2227 20.3223 10.3832 20.4147C10.6676 20.5775 10.6992 20.8886 10.6627 21.0248C10.6068 21.2362 10.1911 22.0165 9.46924 21.613Z" stroke="#D31B29" stroke-width="0.7" stroke-miterlimit="10"/>
<path d="M10.4553 20.4625C10.4553 20.4625 9.3591 18.3551 8.71984 18.4864C8.08057 18.6176 7.25172 19.9763 7.3052 20.2048C7.35867 20.4309 8.45733 21.8577 9.52438 21.6073" stroke="#D31B29" stroke-width="0.7" stroke-miterlimit="10"/>
<path d="M11.3574 27.147C11.3574 27.147 11.8192 25.9365 12.4415 26.6268C12.6651 26.8747 12.7502 27.0862 12.7599 27.2564C12.7769 27.5626 12.5484 27.7449 12.422 27.7838C12.23 27.8494 11.406 27.9199 11.3574 27.147Z" stroke="#D31B29" stroke-width="0.7" stroke-miterlimit="10"/>
<path d="M12.761 27.3415C12.761 27.3415 13.8597 25.4164 13.4319 24.9813C13.0065 24.5462 11.519 24.5851 11.3683 24.7407C11.2176 24.8987 10.6561 26.481 11.3926 27.1908" stroke="#D31B29" stroke-width="0.7" stroke-miterlimit="10"/>
<path d="M13.7465 31.0921C13.7465 31.0921 13.1316 29.9521 14.0601 29.9302C14.3931 29.9229 14.6094 29.9934 14.7455 30.1004C14.9886 30.2875 14.9765 30.5792 14.9254 30.7007C14.8476 30.8903 14.3639 31.5587 13.7465 31.0921Z" stroke="#D31B29" stroke-width="0.7" stroke-miterlimit="10"/>
<path d="M14.808 30.159C14.808 30.159 14.0642 28.071 13.4565 28.1099C12.8489 28.1488 11.9082 29.3009 11.9301 29.5173C11.9519 29.7336 12.7832 31.192 13.8041 31.0972" stroke="#D31B29" stroke-width="0.7" stroke-miterlimit="10"/>
<path d="M8.43197 23.6299C8.43197 23.6299 9.16117 24.7043 8.14759 24.8428C7.78299 24.8914 7.54235 24.8453 7.38922 24.7553C7.11456 24.5949 7.11213 24.2984 7.16074 24.1695C7.24095 23.9702 7.73437 23.2362 8.43197 23.6299Z" stroke="#D31B29" stroke-width="0.7" stroke-miterlimit="10"/>
<path d="M7.32031 24.7117C7.32031 24.7117 8.2391 26.7291 8.90024 26.6149C9.56381 26.5007 10.5336 25.2197 10.4996 25.0034C10.4656 24.787 9.48116 23.4162 8.37279 23.6373" stroke="#D31B29" stroke-width="0.7" stroke-miterlimit="10"/>
<path d="M12.522 5.36085C12.522 5.36085 13.4433 5.47509 13.4627 4.81152C13.4821 4.14795 14.1457 4.20143 14.5589 4.36671C14.9721 4.532 15.2614 4.09691 15.3659 3.90246C15.4704 3.70801 15.7378 3.88058 16.1316 4.19171C16.5253 4.50283 16.5958 4.532 16.958 4.28407C17.3201 4.03614 17.8573 4.45908 17.8257 4.81152C17.7941 5.16397 17.7018 5.25633 18.2073 5.26606C18.7153 5.27578 19.024 5.6185 18.9414 5.98067C18.8587 6.34284 18.5841 6.58104 18.9949 6.74632C19.4056 6.91161 19.9647 7.25433 19.707 7.54358C19.4494 7.83283 19.0459 7.96651 19.1699 8.41132C19.2938 8.85613 19.6341 9.70443 19.1286 9.7652C18.6205 9.82839 18.6643 9.57804 18.6424 10.035C18.6205 10.4895 18.8806 10.9441 18.4455 10.9659C18.0105 10.9878 17.7115 10.5746 17.5875 10.8104C17.4636 11.0486 17.8354 11.5639 17.2983 11.5639C16.7611 11.5639 16.8948 11.2746 16.6153 11.367C16.3357 11.4594 16.2628 12.174 15.7888 12.0816C15.3149 11.9892 15.4996 11.6684 15.1787 11.5639C14.8579 11.4594 14.9211 11.5226 14.5686 11.6684C14.2162 11.8142 14.1141 11.4205 14.0922 11.0583C14.0704 10.6961 13.4505 11.0583 13.1419 10.8104C12.8307 10.5625 13.1734 10.368 13.1734 10.2076C13.1734 10.0472 12.8016 10.159 12.4394 10.0253C12.0772 9.89159 12.4807 9.67283 12.4904 9.46623C12.5002 9.25962 12.1599 9.46623 11.9119 9.16726C11.664 8.86829 12.0165 8.92905 12.2012 8.6398C12.3883 8.35056 11.7151 8.19499 11.5498 7.8231C11.3845 7.45121 11.3529 7.56546 11.7977 7.22273C12.2425 6.88001 12.0019 6.83626 11.7345 6.53243C11.4671 6.2286 11.2411 6.05359 11.8099 5.9199C12.3786 5.78622 11.997 5.50669 11.9751 5.28793C11.9533 5.06917 12.522 5.36085 12.522 5.36085Z" fill="#F5F4EF" stroke="#D31B29" stroke-width="0.7" stroke-miterlimit="10"/>
<path d="M15.3858 7.23815C15.3858 7.23815 16.7664 8.26146 15.7747 8.75974C14.783 9.25803 12.5468 7.36212 14.3479 6.20026C16.149 5.03841 17.8067 6.44819 17.7143 7.59546C17.622 8.74273 17.481 11.3046 14.9993 10.031" stroke="#D31B29" stroke-width="0.7" stroke-miterlimit="10"/>
<path d="M8.07154 11.6998C8.07154 11.6998 8.79588 11.7897 8.81289 11.2671C8.82991 10.7445 9.35007 10.7858 9.67577 10.9171C10.0015 11.0484 10.23 10.7056 10.3102 10.5501C10.3928 10.3945 10.6043 10.5331 10.913 10.7786C11.2217 11.0241 11.28 11.0484 11.5644 10.8515C11.8488 10.6546 12.2741 10.99 12.2474 11.2671C12.2231 11.5442 12.1502 11.6171 12.5488 11.6244C12.9474 11.6317 13.1929 11.9015 13.1273 12.1859C13.0617 12.4703 12.8453 12.6575 13.1711 12.7887C13.4943 12.92 13.9343 13.1873 13.7301 13.4158C13.5259 13.6443 13.2099 13.7488 13.3072 14.0988C13.4044 14.4488 13.6742 15.1173 13.2756 15.1659C12.8769 15.2145 12.9085 15.0201 12.894 15.3774C12.8794 15.7347 13.0811 16.0944 12.7384 16.1114C12.3957 16.1284 12.1599 15.8052 12.0627 15.9923C11.9655 16.1795 12.2571 16.5854 11.8342 16.5854C11.4113 16.5854 11.5158 16.3569 11.297 16.4298C11.0783 16.5027 11.0199 17.0642 10.6456 16.9913C10.2713 16.9184 10.4171 16.6656 10.1643 16.583C9.91155 16.5003 9.96016 16.5514 9.68307 16.6656C9.40597 16.7798 9.32576 16.4712 9.30875 16.1843C9.29173 15.8975 8.80317 16.1843 8.5601 15.9899C8.31461 15.793 8.58441 15.6423 8.58441 15.5135C8.58441 15.3846 8.2903 15.4746 8.00591 15.3701C7.72153 15.2631 8.03751 15.093 8.04724 14.9301C8.05696 14.7673 7.78716 14.9301 7.59027 14.6943C7.39582 14.4586 7.67291 14.5072 7.81875 14.2787C7.96459 14.0502 7.43714 13.9287 7.30589 13.6346C7.17463 13.3405 7.15032 13.4304 7.50034 13.163C7.85035 12.8932 7.66076 12.8568 7.44929 12.6186C7.23783 12.3804 7.06039 12.2418 7.50763 12.1349C7.95487 12.0279 7.65347 11.8092 7.63889 11.639C7.6243 11.4713 8.07154 11.6998 8.07154 11.6998Z" fill="#F5F4EF" stroke="#D31B29" stroke-width="0.7" stroke-miterlimit="10"/>
<path d="M10.3266 13.1792C10.3266 13.1792 11.4131 13.9862 10.6328 14.3775C9.85016 14.7689 8.09279 13.2789 9.50987 12.3625C10.9269 11.4462 12.2346 12.557 12.1617 13.4612C12.0888 14.3654 11.9794 16.3804 10.0227 15.379" stroke="#D31B29" stroke-width="0.7" stroke-miterlimit="10"/>
<path d="M17.7941 23.9893C17.7334 24.0403 17.7139 24.1254 17.658 24.1837C17.1937 24.6431 15.011 26.9863 16.4475 28.8506C18.0493 30.9288 20.6599 30.9215 22.3346 31.6216C24.0117 32.3216 26.3938 31.641 26.6903 29.4485C26.9869 27.2561 26.6198 25.8536 23.0395 24.6699C19.5904 23.525 18.5792 23.3306 17.7941 23.9893Z" fill="#F5F4EF" stroke="#D31B29" stroke-width="0.7" stroke-miterlimit="10"/>
<path d="M18.5942 26.0998C18.3244 26.2165 18.0959 26.4085 17.9306 26.6516C17.4008 27.4343 16.6473 29.2014 19.9481 29.9281C24.2503 30.8737 24.3622 31.4959 24.9406 30.5261C25.5191 29.5587 25.9421 27.2666 22.5562 26.7099C19.4304 26.1946 19.8825 25.5432 18.5942 26.0998Z" fill="#F5F4EF" stroke="#D31B29" stroke-width="0.7" stroke-miterlimit="10"/>
<path d="M21.5597 21.1219C21.533 21.1972 21.5621 21.2799 21.5427 21.3577C21.3823 21.9896 20.7066 25.1203 22.8966 25.9856C25.337 26.9482 27.5732 25.604 29.3718 25.3464C31.1705 25.0887 32.8671 23.2803 31.9969 21.2459C31.1268 19.2114 30.0937 18.1954 26.4113 19.0145C22.8625 19.8021 21.8951 20.1545 21.5597 21.1219Z" fill="#F5F4EF" stroke="#D31B29" stroke-width="0.7" stroke-miterlimit="10"/>
<path d="M23.3297 22.5245C23.1595 22.7627 23.0599 23.0446 23.0428 23.3363C22.9894 24.2794 23.2494 26.1826 26.4555 25.1131C30.6338 23.7203 31.047 24.1968 31.047 23.0689C31.047 21.9411 30.2352 19.7584 27.0413 21.015C24.0953 22.1745 24.1488 21.3845 23.3297 22.5245Z" fill="#F5F4EF" stroke="#D31B29" stroke-width="0.7" stroke-miterlimit="10"/>
</svg>
