<svg width="81" height="45" viewBox="0 0 81 45" fill="none" xmlns="http://www.w3.org/2000/svg">
<path d="M49.9448 27.47V29H46.3448V27.47H49.9448ZM43.1048 29L41.5748 26.21V29H39.2348V22.7H41.8448L43.3748 25.49V22.7H45.7148V29H43.1048ZM47.6048 25.13C47.6048 25.49 47.8748 25.76 48.1448 25.76C48.4148 25.76 48.6848 25.49 48.6848 25.13C48.6848 24.77 48.4148 24.5 48.1448 24.5C47.8748 24.5 47.6048 24.77 47.6048 25.13ZM46.1648 25.13C46.1648 24.05 46.9748 23.24 48.1448 23.24C49.3148 23.24 50.1248 24.05 50.1248 25.13C50.1248 26.21 49.3148 27.02 48.1448 27.02C46.9748 27.02 46.1648 26.21 46.1648 25.13Z" fill="#D31627"/>
<path d="M4.5807 20.85C4.5807 19.05 6.1107 17.52 8.0007 17.52C9.8907 17.52 11.4207 19.05 11.4207 20.85C11.4207 22.65 9.8907 24.18 8.0007 24.18C6.1107 24.18 4.5807 22.65 4.5807 20.85ZM10.5207 20.85C10.5207 19.5 9.4407 18.42 8.0007 18.42C6.5607 18.42 5.4807 19.5 5.4807 20.85C5.4807 22.2 6.5607 23.28 8.0007 23.28C9.4407 23.28 10.5207 22.2 10.5207 20.85ZM6.4707 20.85C6.4707 19.86 7.1907 19.14 8.1807 19.14C8.9907 19.14 9.5307 19.635 9.5307 19.635L8.9907 20.535C8.9907 20.535 8.7207 20.31 8.4057 20.31C8.0457 20.31 7.8207 20.535 7.8207 20.85C7.8207 21.165 8.0457 21.39 8.4057 21.39C8.7207 21.39 8.9907 21.165 8.9907 21.165L9.5307 22.065C9.5307 22.065 8.9907 22.56 8.1807 22.56C7.1907 22.56 6.4707 21.84 6.4707 20.85Z" fill="#D31627"/>
<path d="M45.8007 36.47H44.2707L43.9557 35.48H43.9107V36.47H42.5607V33.23C42.5607 33.23 43.2807 33.14 44.0007 33.14C45.0807 33.14 45.6207 33.68 45.6207 34.31C45.6207 34.85 45.1707 35.12 45.1707 35.12L45.8007 36.47ZM43.9107 34.04V34.58H44.0007C44.1267 34.58 44.2707 34.445 44.2707 34.31C44.2707 34.175 44.1357 34.04 44.0007 34.04H43.9107ZM40.5807 34.85C40.5807 33.05 42.1107 31.52 44.0007 31.52C45.8907 31.52 47.4207 33.05 47.4207 34.85C47.4207 36.65 45.8907 38.18 44.0007 38.18C42.1107 38.18 40.5807 36.65 40.5807 34.85ZM46.5207 34.85C46.5207 33.5 45.4407 32.42 44.0007 32.42C42.5607 32.42 41.4807 33.5 41.4807 34.85C41.4807 36.2 42.5607 37.28 44.0007 37.28C45.4407 37.28 46.5207 36.2 46.5207 34.85Z" fill="#D31627"/>
<path d="M53.7265 33.7393L54.58 34.3713C54.3661 34.6608 54.4003 34.91 54.6896 35.1243L55.7744 35.9277C56.4254 36.4098 56.5277 37.1573 56.0303 37.7966L55.367 38.649L54.2098 37.792L54.4862 37.4368C54.5967 37.2947 54.5797 37.1701 54.435 37.063L53.6394 36.4738C52.9162 35.9382 53.2137 35.2628 53.2137 35.2628C53.2137 35.2628 52.6269 35.7239 51.9036 35.1883L51.108 34.5991C50.9634 34.492 50.8358 34.5094 50.7253 34.6515L50.4489 35.0067L49.2917 34.1496L49.9549 33.2973C50.4524 32.658 51.2179 32.5532 51.8689 33.0353L52.9537 33.8387C53.243 34.053 53.4982 34.0181 53.7265 33.7393Z" fill="#D31627"/>
<path d="M55.6815 22.9956L57.512 24.3649L57.2385 25.6869L55.408 24.3176L53.1765 24.8873L53.4499 23.5652L55.6815 22.9956ZM55.2804 24.9345L57.1109 26.3038L56.8375 27.6259L55.007 26.2566L52.7755 26.8262L53.0489 25.5042L55.2804 24.9345Z" fill="#D31627"/>
<path d="M53.725 17.2151L54.5659 18.4813L53.2875 19.3303L52.4466 18.0641L51.1682 18.9131L50.3272 17.6469L51.6057 16.7979L50.7647 15.5317L52.0432 14.6827L52.8841 15.9489L54.1625 15.0999L55.0034 16.3661L53.725 17.2151Z" fill="#D31627"/>
<path d="M17.3493 24.57H16.1793C16.1793 25.02 15.7293 25.2 15.7293 25.2H18.5193V27H13.4793V25.2C13.4793 25.2 14.1093 25.02 14.1093 24.57H13.6593V23.31H14.1093C14.1093 23.049 14.1093 22.887 14.1093 22.86C14.1093 21.465 15.0093 20.565 16.4043 20.565C17.7093 20.565 18.5193 21.375 18.5193 22.86H16.9443C16.9443 22.59 16.7643 22.41 16.5843 22.41C16.4043 22.41 16.2243 22.59 16.2243 22.86V23.31H17.3493V24.57Z" fill="#D31627"/>
<path d="M7.54307 30.23H9.70307V32.75C9.70307 32.975 9.83807 33.11 10.0631 33.11C10.1531 33.11 10.2431 33.065 10.2431 33.065L10.6031 34.82C10.6031 34.82 10.1531 35.09 9.43307 35.09C8.17307 35.09 7.90307 34.28 7.90307 34.28C7.90307 34.28 7.72307 34.64 7.36307 34.64C7.18307 34.64 7.00307 34.55 7.00307 34.55V37.25H4.84307V30.23H7.00307V32.57C7.00307 32.795 7.13807 32.93 7.27307 32.93C7.40807 32.93 7.54307 32.795 7.54307 32.57V30.23Z" fill="#D31627"/>
<path d="M23.3305 23.25L23.6455 18.57H25.3555L25.6705 23.25H23.3305ZM25.4455 18.03H23.5555V16.23H25.4455V18.03Z" fill="#D31627"/>
<path d="M16.03 33.5552L16.03 35.4452L14.23 35.4452L14.23 33.5552L16.03 33.5552ZM19 33.5552L19 35.4452L17.2 35.4452L17.2 33.5552L19 33.5552Z" fill="#D31627"/>
<path d="M23.535 30.5011L24.39 31.0861L23.625 32.1211L22.815 31.4911L22.545 32.4361L21.375 32.0311L21.69 31.0861L20.7 31.1311L20.7 29.8711L21.69 29.9161L21.375 28.9711L22.545 28.5661L22.815 29.5111L23.625 28.8811L24.39 29.9161L23.535 30.5011Z" fill="#D31627"/>
<path d="M28.8475 39.81V39.09C27.4075 38.91 26.7775 38.055 26.7775 38.055L27.6325 36.705C27.6325 36.705 28.2625 37.29 29.1625 37.29C29.3875 37.29 29.5225 37.155 29.5225 37.02C29.5225 36.57 27.0925 36.57 27.0925 34.59C27.0925 33.105 28.8475 32.655 28.8475 32.655V31.89H30.0175V32.565C31.3675 32.7 32.0875 33.555 32.0875 33.555L31.2325 34.905C31.2325 34.905 30.6925 34.41 30.0625 34.41C29.8375 34.41 29.7025 34.545 29.7025 34.68C29.7025 35.13 32.1325 35.13 32.1325 37.11C32.1325 38.82 30.0175 39.09 30.0175 39.09V39.81H28.8475Z" fill="#D31627"/>
<path d="M35.7182 21.83L34.6382 23.09L33.7832 22.325C33.7832 22.325 33.0632 23.135 31.8032 23.135C30.3632 23.135 29.5532 22.325 29.5532 21.29C29.5532 20.21 30.6332 19.58 30.6332 19.58C30.6332 19.58 30.0932 19.085 30.0932 18.32C30.0932 17.33 30.9032 16.52 32.1182 16.52C33.2432 16.52 34.0532 17.33 34.0532 18.23C34.0532 18.95 33.1982 19.67 33.1982 19.67L33.6482 20.075L34.5032 19.04L35.7182 20.075L34.8632 21.11L35.7182 21.83ZM31.7132 18.41C31.7132 18.68 32.1182 18.95 32.1182 18.95C32.1182 18.95 32.5232 18.68 32.5232 18.41C32.5232 18.14 32.3432 17.96 32.1182 17.96C31.8932 17.96 31.7132 18.14 31.7132 18.41ZM31.4432 21.065C31.4432 21.335 31.6682 21.56 31.9382 21.56C32.3432 21.56 32.5682 21.29 32.5682 21.29L31.7132 20.57C31.7132 20.57 31.4432 20.795 31.4432 21.065Z" fill="#D31627"/>
<path d="M31.23 25.0682C32.4 25.0682 32.76 26.5982 33.66 26.5982L33.66 28.4882C32.31 28.4882 32.13 27.4082 31.5 27.4082C31.32 27.4082 31.14 27.5882 31.14 27.7682C31.14 28.2182 31.68 28.3082 31.68 28.3082L31.05 30.0182C31.05 30.0182 29.34 29.6582 29.34 27.4982C29.34 25.9682 30.24 25.0682 31.23 25.0682ZM34.2 28.4882L34.2 26.5982L36 26.5982L36 28.4882L34.2 28.4882Z" fill="#D31627"/>
<path d="M40.7995 18H38.9995L43.2295 11.7H45.0295L40.7995 18ZM40.0795 12.6C39.8995 12.6 39.7195 12.78 39.7195 13.05C39.7195 13.32 39.8995 13.5 40.0795 13.5C40.2595 13.5 40.4395 13.32 40.4395 13.05C40.4395 12.78 40.2595 12.6 40.0795 12.6ZM40.0795 14.49C39.2695 14.49 38.6395 13.86 38.6395 13.05C38.6395 12.24 39.2695 11.61 40.0795 11.61C40.8895 11.61 41.5195 12.24 41.5195 13.05C41.5195 13.86 40.8895 14.49 40.0795 14.49ZM43.8595 16.2C43.6795 16.2 43.4995 16.38 43.4995 16.65C43.4995 16.92 43.6795 17.1 43.8595 17.1C44.0395 17.1 44.2195 16.92 44.2195 16.65C44.2195 16.38 44.0395 16.2 43.8595 16.2ZM43.8595 18.09C43.0495 18.09 42.4195 17.46 42.4195 16.65C42.4195 15.84 43.0495 15.21 43.8595 15.21C44.6695 15.21 45.2995 15.84 45.2995 16.65C45.2995 17.46 44.6695 18.09 43.8595 18.09ZM46.9195 16.2C46.7395 16.2 46.5595 16.38 46.5595 16.65C46.5595 16.92 46.7395 17.1 46.9195 17.1C47.0995 17.1 47.2795 16.92 47.2795 16.65C47.2795 16.38 47.0995 16.2 46.9195 16.2ZM46.9195 18.09C46.1095 18.09 45.4795 17.46 45.4795 16.65C45.4795 15.84 46.1095 15.21 46.9195 15.21C47.7295 15.21 48.3595 15.84 48.3595 16.65C48.3595 17.46 47.7295 18.09 46.9195 18.09Z" fill="#D31627"/>
<path d="M36.1659 14.4H34.3659L35.4459 11.7H36.7959L36.1659 14.4ZM34.0059 14.4H32.2059L33.2859 11.7H34.6359L34.0059 14.4Z" fill="#D31627"/>
<path d="M17.7202 15.7L18.8002 17.23H17.4502L17.0002 16.51L16.5502 17.23H15.2002L16.2802 15.7H17.7202Z" fill="#D31627"/>
<path d="M34.6011 31.6C34.6011 31.105 35.0061 30.7 35.5011 30.7C35.9961 30.7 36.4011 31.105 36.4011 31.6C36.4011 32.095 35.9961 32.5 35.5011 32.5C35.0061 32.5 34.6011 32.095 34.6011 31.6Z" fill="#D31627"/>
<path d="M78.6331 14.1553C78.6331 14.1553 80.8802 13.3157 79.553 12.5602C78.2294 11.8011 42.3112 24.3966 42.3112 24.3966C42.3112 24.3966 41.5048 25.1717 43.3499 24.659C45.1985 24.1427 78.6331 14.1553 78.6331 14.1553Z" fill="#82817C"/>
<path d="M79.3183 18.0114C79.3183 18.0114 81.622 17.3331 80.3546 16.4857C79.0909 15.6348 42.3304 25.654 42.3304 25.654C42.3304 25.654 41.4685 26.3699 43.3469 25.9893C45.229 25.6053 79.3183 18.0114 79.3183 18.0114Z" fill="#82817C"/>
</svg>
