<svg width="90" height="37" viewBox="0 0 90 37" fill="none" xmlns="http://www.w3.org/2000/svg">
<g clip-path="url(#clip0_396_1627)">
<rect width="90" height="36" transform="translate(0 0.015625)" fill="#F5F4EF"/>
<path d="M89.7398 0.335938H0.132812V35.6967H89.7398V0.335938Z" stroke="#82817C" stroke-width="0.3" stroke-miterlimit="10"/>
<path d="M84.5664 0.335938V35.6967" stroke="#82817C" stroke-width="0.3" stroke-miterlimit="10"/>
<path d="M74.6738 0.335938V35.6967" stroke="#82817C" stroke-width="0.3" stroke-miterlimit="10"/>
<path d="M64.7793 0.335938V35.6967" stroke="#82817C" stroke-width="0.3" stroke-miterlimit="10"/>
<path d="M54.8867 0.335938V35.6967" stroke="#82817C" stroke-width="0.3" stroke-miterlimit="10"/>
<path d="M44.9922 0.335938V35.6967" stroke="#82817C" stroke-width="0.3" stroke-miterlimit="10"/>
<path d="M35.0996 0.335938V35.6967" stroke="#82817C" stroke-width="0.3" stroke-miterlimit="10"/>
<path d="M25.2109 0.335938V35.6967" stroke="#82817C" stroke-width="0.3" stroke-miterlimit="10"/>
<path d="M15.3184 0.335938V35.6967" stroke="#82817C" stroke-width="0.3" stroke-miterlimit="10"/>
<path d="M5.42383 0.335938V35.6967" stroke="#82817C" stroke-width="0.3" stroke-miterlimit="10"/>
<path d="M10.3685 35.4021L0.269531 24.0014H89.7394L69.7288 0.335938V35.6967" stroke="#82817C" stroke-width="0.3" stroke-miterlimit="10"/>
<path d="M20.2619 35.4021L0.269531 12.2361H89.7394L79.6176 0.335938V35.6967L49.942 0.335938V35.6967" stroke="#82817C" stroke-width="0.3" stroke-miterlimit="10"/>
<path d="M30.1557 35.4021L0.132812 0.335938" stroke="#82817C" stroke-width="0.3" stroke-miterlimit="10"/>
<path d="M59.8364 35.4021L30.1562 0.335938V35.6967" stroke="#82817C" stroke-width="0.3" stroke-miterlimit="10"/>
<path d="M69.729 35.4021L40.0488 0.335938V35.6967" stroke="#82817C" stroke-width="0.3" stroke-miterlimit="10"/>
<path d="M89.74 35.4021L59.8359 0.335938V35.6967" stroke="#82817C" stroke-width="0.3" stroke-miterlimit="10"/>
<path d="M10.3685 0.335938L0.269531 12.2361" stroke="#82817C" stroke-width="0.3" stroke-miterlimit="10"/>
<path d="M20.2619 0.335938L0.269531 24.0014" stroke="#82817C" stroke-width="0.3" stroke-miterlimit="10"/>
<path d="M30.1557 0.335938L0.132812 35.6967" stroke="#82817C" stroke-width="0.3" stroke-miterlimit="10"/>
<path d="M49.9418 0.335938L20.2617 35.4021" stroke="#82817C" stroke-width="0.3" stroke-miterlimit="10"/>
<path d="M59.8364 0.335938L30.1562 35.4021" stroke="#82817C" stroke-width="0.3" stroke-miterlimit="10"/>
<path d="M69.7294 0.335938L40.0493 35.4021L10.3691 0.335938V35.6967L40.0493 0.335938" stroke="#82817C" stroke-width="0.3" stroke-miterlimit="10"/>
<path d="M79.6174 0.335938L49.9418 35.4021L20.2617 0.335938V35.6967" stroke="#82817C" stroke-width="0.3" stroke-miterlimit="10"/>
<path d="M89.74 0.335938L59.8359 35.4021" stroke="#82817C" stroke-width="0.3" stroke-miterlimit="10"/>
<path d="M89.7392 12.2344C69.7285 35.695 69.7285 35.695 69.7285 35.695" stroke="#82817C" stroke-width="0.3" stroke-miterlimit="10"/>
<path d="M89.739 24L79.6172 35.6954" stroke="#82817C" stroke-width="0.3" stroke-miterlimit="10"/>
</g>
<defs>
<clipPath id="clip0_396_1627">
<rect width="90" height="36" fill="white" transform="translate(0 0.015625)"/>
</clipPath>
</defs>
</svg>
