<svg width="100" height="13" viewBox="0 0 100 13" fill="none" xmlns="http://www.w3.org/2000/svg">
<path d="M0 1.46205H100" stroke="#82817C" stroke-width="0.3" stroke-miterlimit="10"/>
<path d="M9.7185 7.58563C9.7185 10.767 8.25535 12.1703 5.92076 12.1703C3.82286 12.1703 2.11585 11.4488 2.12302 7.58563C2.12661 3.59094 3.77624 2.83347 5.92076 2.82151C8.04377 2.80556 9.7185 3.5431 9.7185 7.58563Z" fill="#D40D1C"/>
<path d="M5.91363 2.74577C6.34341 2.74577 6.69182 2.35844 6.69182 1.88065C6.69182 1.40286 6.34341 1.01553 5.91363 1.01553C5.48384 1.01553 5.13543 1.40286 5.13543 1.88065C5.13543 2.35844 5.48384 2.74577 5.91363 2.74577Z" stroke="#82817C" stroke-width="0.1" stroke-miterlimit="10"/>
<path d="M7.37677 3.02484H4.37874V2.18364C4.37874 2.0162 4.50067 1.87666 4.65487 1.87666H7.10422C7.25484 1.87666 7.38035 2.01221 7.38035 2.18364V3.02484H7.37677Z" fill="#82817C"/>
<path d="M4.37873 11.9431H7.37676V12.6607C7.37676 12.8282 7.25483 12.9677 7.10062 12.9677H4.65128C4.50066 12.9677 4.37514 12.8322 4.37514 12.6607V11.9431H4.37873Z" fill="#82817C"/>
<path d="M20.9503 7.58563C20.9503 10.767 19.4872 12.1703 17.1526 12.1703C15.0547 12.1703 13.3477 11.4488 13.3548 7.58563C13.3584 3.59094 15.0081 2.83347 17.1526 2.82151C19.272 2.80556 20.9503 3.5431 20.9503 7.58563Z" fill="#FFFDEE"/>
<path d="M17.1454 2.74577C17.5752 2.74577 17.9236 2.35844 17.9236 1.88065C17.9236 1.40286 17.5752 1.01553 17.1454 1.01553C16.7156 1.01553 16.3672 1.40286 16.3672 1.88065C16.3672 2.35844 16.7156 2.74577 17.1454 2.74577Z" stroke="#82817C" stroke-width="0.1" stroke-miterlimit="10"/>
<path d="M18.6086 3.02484H15.6105V2.18364C15.6105 2.0162 15.7325 1.87666 15.8867 1.87666H18.336C18.4866 1.87666 18.6121 2.01221 18.6121 2.18364V3.02484H18.6086Z" fill="#82817C"/>
<path d="M15.6105 11.9431H18.6086V12.6607C18.6086 12.8282 18.4866 12.9677 18.3324 12.9677H15.8867C15.736 12.9677 15.6105 12.8322 15.6105 12.6607V11.9431Z" fill="#82817C"/>
<path d="M32.1822 7.58563C32.1822 10.767 30.719 12.1703 28.3844 12.1703C26.2865 12.1703 24.5795 11.4488 24.5867 7.58563C24.5903 3.59094 26.2399 2.83347 28.3809 2.82151C30.5039 2.80556 32.1822 3.5431 32.1822 7.58563Z" fill="#D40D1C"/>
<path d="M28.3773 2.74577C28.8071 2.74577 29.1555 2.35844 29.1555 1.88065C29.1555 1.40286 28.8071 1.01553 28.3773 1.01553C27.9475 1.01553 27.5991 1.40286 27.5991 1.88065C27.5991 2.35844 27.9475 2.74577 28.3773 2.74577Z" stroke="#82817C" stroke-width="0.1" stroke-miterlimit="10"/>
<path d="M29.8405 3.02484H26.8424V2.18364C26.8424 2.0162 26.9644 1.87666 27.1186 1.87666H29.5679C29.7185 1.87666 29.844 2.01221 29.844 2.18364V3.02484H29.8405Z" fill="#82817C"/>
<path d="M26.8424 11.9431H29.8405V12.6607C29.8405 12.8282 29.7185 12.9677 29.5643 12.9677H27.115C26.9644 12.9677 26.8388 12.8322 26.8388 12.6607V11.9431H26.8424Z" fill="#82817C"/>
<path d="M43.414 7.58563C43.414 10.767 41.9509 12.1703 39.6163 12.1703C37.5184 12.1703 35.8114 11.4488 35.8185 7.58563C35.8257 3.59094 37.4753 2.83347 39.6163 2.82151C41.7357 2.80556 43.414 3.5431 43.414 7.58563Z" fill="#FFFDEE"/>
<path d="M39.6091 2.74577C40.0389 2.74577 40.3873 2.35844 40.3873 1.88065C40.3873 1.40286 40.0389 1.01553 39.6091 1.01553C39.1793 1.01553 38.8309 1.40286 38.8309 1.88065C38.8309 2.35844 39.1793 2.74577 39.6091 2.74577Z" stroke="#82817C" stroke-width="0.1" stroke-miterlimit="10"/>
<path d="M41.0723 3.02484H38.0742V2.18364C38.0742 2.0162 38.1962 1.87666 38.3504 1.87666H40.7997C40.9503 1.87666 41.0759 2.01221 41.0759 2.18364V3.02484H41.0723Z" fill="#82817C"/>
<path d="M38.0742 11.9431H41.0723V12.6607C41.0723 12.8282 40.9503 12.9677 40.7961 12.9677H38.3468C38.1962 12.9677 38.0706 12.8322 38.0706 12.6607V11.9431H38.0742Z" fill="#82817C"/>
<path d="M54.6459 7.58563C54.6459 10.767 53.1827 12.1703 50.8481 12.1703C48.7502 12.1703 47.0432 11.4488 47.0504 7.58563C47.0576 3.59094 48.7072 2.83347 50.8481 2.82151C52.9675 2.80556 54.6459 3.5431 54.6459 7.58563Z" fill="#D40D1C"/>
<path d="M50.841 2.74577C51.2708 2.74577 51.6192 2.35844 51.6192 1.88065C51.6192 1.40286 51.2708 1.01553 50.841 1.01553C50.4112 1.01553 50.0628 1.40286 50.0628 1.88065C50.0628 2.35844 50.4112 2.74577 50.841 2.74577Z" stroke="#82817C" stroke-width="0.1" stroke-miterlimit="10"/>
<path d="M52.3041 3.02484H49.3061V2.18364C49.3061 2.0162 49.428 1.87666 49.5822 1.87666H52.0316C52.1822 1.87666 52.3077 2.01221 52.3077 2.18364V3.02484H52.3041Z" fill="#82817C"/>
<path d="M49.3061 11.9431H52.3041V12.6607C52.3041 12.8282 52.1822 12.9677 52.028 12.9677H49.5786C49.428 12.9677 49.3025 12.8322 49.3025 12.6607V11.9431H49.3061Z" fill="#82817C"/>
<path d="M65.8777 7.58563C65.8777 10.767 64.4145 12.1703 62.08 12.1703C59.9821 12.1703 58.275 11.4488 58.2822 7.58563C58.2894 3.59094 59.939 2.83347 62.08 2.82151C64.1994 2.80556 65.8777 3.5431 65.8777 7.58563Z" fill="#FFFDEE"/>
<path d="M62.0728 2.74577C62.5026 2.74577 62.851 2.35844 62.851 1.88065C62.851 1.40286 62.5026 1.01553 62.0728 1.01553C61.643 1.01553 61.2946 1.40286 61.2946 1.88065C61.2946 2.35844 61.643 2.74577 62.0728 2.74577Z" stroke="#82817C" stroke-width="0.1" stroke-miterlimit="10"/>
<path d="M63.5359 3.02484H60.5379V2.18364C60.5379 2.0162 60.6598 1.87666 60.814 1.87666H63.2634C63.414 1.87666 63.5395 2.01221 63.5395 2.18364V3.02484H63.5359Z" fill="#82817C"/>
<path d="M60.5379 11.9431H63.536V12.6607C63.536 12.8282 63.414 12.9677 63.2598 12.9677H60.8105C60.6599 12.9677 60.5343 12.8322 60.5343 12.6607V11.9431H60.5379Z" fill="#82817C"/>
<path d="M77.106 7.58563C77.106 10.767 75.6428 12.1703 73.3082 12.1703C71.2103 12.1703 69.5033 11.4488 69.5105 7.58563C69.5177 3.59094 71.1673 2.83347 73.3082 2.82151C75.4312 2.80556 77.106 3.5431 77.106 7.58563Z" fill="#D40D1C"/>
<path d="M73.3011 2.74577C73.7309 2.74577 74.0793 2.35844 74.0793 1.88065C74.0793 1.40286 73.7309 1.01553 73.3011 1.01553C72.8713 1.01553 72.5229 1.40286 72.5229 1.88065C72.5229 2.35844 72.8713 2.74577 73.3011 2.74577Z" stroke="#82817C" stroke-width="0.1" stroke-miterlimit="10"/>
<path d="M74.7678 3.02484H71.7698V2.18364C71.7698 2.0162 71.8917 1.87666 72.0459 1.87666H74.4953C74.6459 1.87666 74.7714 2.01221 74.7714 2.18364V3.02484H74.7678Z" fill="#82817C"/>
<path d="M71.7697 11.9431H74.7678V12.6607C74.7678 12.8282 74.6458 12.9677 74.4916 12.9677H72.0423C71.8917 12.9677 71.7662 12.8322 71.7662 12.6607V11.9431H71.7697Z" fill="#82817C"/>
<path d="M88.3378 7.58563C88.3378 10.767 86.8747 12.1703 84.5401 12.1703C82.4422 12.1703 80.7352 11.4488 80.7423 7.58563C80.7495 3.59094 82.3991 2.83347 84.5401 2.82151C86.6631 2.80556 88.3378 3.5431 88.3378 7.58563Z" fill="#FFFDEE"/>
<path d="M84.5329 2.74577C84.9627 2.74577 85.3111 2.35844 85.3111 1.88065C85.3111 1.40286 84.9627 1.01553 84.5329 1.01553C84.1031 1.01553 83.7547 1.40286 83.7547 1.88065C83.7547 2.35844 84.1031 2.74577 84.5329 2.74577Z" stroke="#82817C" stroke-width="0.1" stroke-miterlimit="10"/>
<path d="M85.9997 3.02484H83.0016V2.18364C83.0016 2.0162 83.1236 1.87666 83.2778 1.87666H85.7271C85.8777 1.87666 86.0032 2.01221 86.0032 2.18364V3.02484H85.9997Z" fill="#82817C"/>
<path d="M83.0016 11.9431H85.9996V12.6607C85.9996 12.8282 85.8777 12.9677 85.7235 12.9677H83.2742C83.1235 12.9677 82.998 12.8322 82.998 12.6607V11.9431H83.0016Z" fill="#82817C"/>
<path d="M98.5697 7.58563C98.5697 10.767 97.1065 12.1703 94.7719 12.1703C92.674 12.1703 90.967 11.4488 90.9742 7.58563C90.9813 3.59094 92.631 2.83347 94.7719 2.82151C96.8949 2.80556 98.5697 3.5431 98.5697 7.58563Z" fill="#D40D1C"/>
<path d="M94.7647 2.74577C95.1945 2.74577 95.5429 2.35844 95.5429 1.88065C95.5429 1.40286 95.1945 1.01553 94.7647 1.01553C94.3349 1.01553 93.9865 1.40286 93.9865 1.88065C93.9865 2.35844 94.3349 2.74577 94.7647 2.74577Z" stroke="#82817C" stroke-width="0.1" stroke-miterlimit="10"/>
<path d="M96.2315 3.02484H93.2334V2.18364C93.2334 2.0162 93.3554 1.87666 93.5096 1.87666H95.9589C96.1095 1.87666 96.2351 2.01221 96.2351 2.18364V3.02484H96.2315Z" fill="#82817C"/>
<path d="M93.2335 11.9431H96.2315V12.6607C96.2315 12.8282 96.1096 12.9677 95.9554 12.9677H93.506C93.3554 12.9677 93.2299 12.8322 93.2299 12.6607V11.9431H93.2335Z" fill="#82817C"/>
</svg>
