<svg width="100" height="15" viewBox="0 0 100 15" fill="none" xmlns="http://www.w3.org/2000/svg">
<path d="M0 2.46094H100" stroke="#82817C" stroke-width="0.5" stroke-miterlimit="10"/>
<path d="M32.1814 8.58468C32.1814 11.7661 30.7183 13.1694 28.3837 13.1694C26.2858 13.1694 24.5788 12.4478 24.586 8.58468C24.5895 4.59 26.2392 3.83252 28.3801 3.82056C30.5031 3.80462 32.1814 4.54216 32.1814 8.58468Z" fill="#D40D1C"/>
<path d="M28.3759 3.74586C28.8056 3.74586 29.1541 3.35853 29.1541 2.88074C29.1541 2.40295 28.8056 2.01562 28.3759 2.01562C27.9461 2.01562 27.5977 2.40295 27.5977 2.88074C27.5977 3.35853 27.9461 3.74586 28.3759 3.74586Z" stroke="#82817C" stroke-width="0.25" stroke-miterlimit="10"/>
<path d="M29.8398 4.02317H26.8418V3.18198C26.8418 3.01453 26.9637 2.875 27.1179 2.875H29.5673C29.7179 2.875 29.8434 3.01055 29.8434 3.18198V4.02317H29.8398Z" fill="#82817C"/>
<path d="M26.8415 12.9414H29.8395V13.659C29.8395 13.8265 29.7176 13.966 29.5634 13.966H27.114C26.9634 13.966 26.8379 13.8304 26.8379 13.659V12.9414H26.8415Z" fill="#82817C"/>
<path d="M43.4139 8.58468C43.4139 11.7661 41.9507 13.1694 39.6161 13.1694C37.5182 13.1694 35.8112 12.4478 35.8184 8.58468C35.8256 4.59 37.4752 3.83252 39.6161 3.82056C41.7355 3.80462 43.4139 4.54216 43.4139 8.58468Z" fill="#FFFDEE"/>
<path d="M39.6083 3.74586C40.0381 3.74586 40.3865 3.35853 40.3865 2.88074C40.3865 2.40295 40.0381 2.01562 39.6083 2.01562C39.1785 2.01562 38.8301 2.40295 38.8301 2.88074C38.8301 3.35853 39.1785 3.74586 39.6083 3.74586Z" stroke="#82817C" stroke-width="0.25" stroke-miterlimit="10"/>
<path d="M41.0722 4.02317H38.0742V3.18198C38.0742 3.01453 38.1961 2.875 38.3504 2.875H40.7997C40.9503 2.875 41.0758 3.01055 41.0758 3.18198V4.02317H41.0722Z" fill="#82817C"/>
<path d="M38.0739 12.9414H41.0719V13.659C41.0719 13.8265 40.95 13.966 40.7958 13.966H38.3464C38.1958 13.966 38.0703 13.8304 38.0703 13.659V12.9414H38.0739Z" fill="#82817C"/>
<path d="M54.6463 8.58468C54.6463 11.7661 53.1831 13.1694 50.8485 13.1694C48.7506 13.1694 47.0436 12.4478 47.0508 8.58468C47.058 4.59 48.7076 3.83252 50.8485 3.82056C52.968 3.80462 54.6463 4.54216 54.6463 8.58468Z" fill="#D40D1C"/>
<path d="M50.8407 3.74586C51.2705 3.74586 51.6189 3.35853 51.6189 2.88074C51.6189 2.40295 51.2705 2.01562 50.8407 2.01562C50.4109 2.01562 50.0625 2.40295 50.0625 2.88074C50.0625 3.35853 50.4109 3.74586 50.8407 3.74586Z" stroke="#82817C" stroke-width="0.25" stroke-miterlimit="10"/>
<path d="M52.3047 4.02317H49.3066V3.18198C49.3066 3.01453 49.4286 2.875 49.5828 2.875H52.0321C52.1827 2.875 52.3083 3.01055 52.3083 3.18198V4.02317H52.3047Z" fill="#82817C"/>
<path d="M49.3063 12.9414H52.3044V13.659C52.3044 13.8265 52.1824 13.966 52.0282 13.966H49.5789C49.4283 13.966 49.3027 13.8304 49.3027 13.659V12.9414H49.3063Z" fill="#82817C"/>
<path d="M65.8768 8.58468C65.8768 11.7661 64.4136 13.1694 62.079 13.1694C59.9811 13.1694 58.2741 12.4478 58.2813 8.58468C58.2884 4.59 59.9381 3.83252 62.079 3.82056C64.1984 3.80462 65.8768 4.54216 65.8768 8.58468Z" fill="#FFFDEE"/>
<path d="M62.0712 3.74586C62.501 3.74586 62.8494 3.35853 62.8494 2.88074C62.8494 2.40295 62.501 2.01562 62.0712 2.01562C61.6414 2.01562 61.293 2.40295 61.293 2.88074C61.293 3.35853 61.6414 3.74586 62.0712 3.74586Z" stroke="#82817C" stroke-width="0.25" stroke-miterlimit="10"/>
<path d="M63.5351 4.02317H60.5371V3.18198C60.5371 3.01453 60.659 2.875 60.8132 2.875H63.2626C63.4132 2.875 63.5387 3.01055 63.5387 3.18198V4.02317H63.5351Z" fill="#82817C"/>
<path d="M60.5368 12.9414H63.5348V13.659C63.5348 13.8265 63.4129 13.966 63.2587 13.966H60.8093C60.6587 13.966 60.5332 13.8304 60.5332 13.659V12.9414H60.5368Z" fill="#82817C"/>
<path d="M75.913 5.61073C77.5808 8.31996 77.0704 10.282 75.0823 11.5058C73.2958 12.6056 71.4639 12.8859 69.4448 9.59241C67.3569 6.18684 68.3646 4.67702 70.1815 3.54452C71.9811 2.41802 73.7939 2.16818 75.913 5.61073Z" fill="#D40D1C"/>
<path d="M70.1342 3.48346C70.5002 3.25816 70.5938 2.74568 70.3434 2.3388C70.0929 1.93192 69.5932 1.78472 69.2272 2.01003C68.8612 2.23533 68.7675 2.74781 69.018 3.15469C69.2684 3.56157 69.7682 3.70877 70.1342 3.48346Z" stroke="#82817C" stroke-width="0.25" stroke-miterlimit="10"/>
<path d="M71.53 2.95302L68.9769 4.52464L68.5359 3.80829C68.4481 3.6657 68.4788 3.48296 68.6101 3.40212L70.696 2.11813C70.8242 2.03918 71.0022 2.08881 71.092 2.2348L71.533 2.95114L71.53 2.95302Z" fill="#82817C"/>
<path d="M73.6515 12.1192L76.2046 10.5476L76.5808 11.1587C76.6685 11.3013 76.6378 11.484 76.5065 11.5649L74.4207 12.8489C74.2924 12.9278 74.1145 12.8782 74.0246 12.7322L73.6484 12.1211L73.6515 12.1192Z" fill="#82817C"/>
</svg>
