<svg width="10" height="10" viewBox="0 0 10 10" fill="none" xmlns="http://www.w3.org/2000/svg">
<rect x="0.05" y="0.065625" width="9.9" height="9.9" fill="#F5F4EF" stroke="#82817C" stroke-width="0.1"/>
<path d="M2.24667 3.49177C2.39212 3.37648 2.56292 3.29719 2.74512 3.26589C2.87504 3.24346 3.03394 3.17669 3.06655 2.98733C3.12348 2.65659 3.29481 2.36916 3.46561 2.45576C3.63694 2.54183 3.82224 2.82926 3.86468 2.69989C3.90764 2.57052 4.00754 2.11042 4.16437 2.05303C4.3212 1.99565 4.59242 1.96696 4.72079 2.25439C4.84915 2.54183 4.74926 2.68581 4.96302 2.55644C5.17679 2.42706 5.54791 2.35507 5.60484 2.58513C5.66178 2.81518 5.59035 3.10261 5.86157 3.21738C6.13279 3.33214 7.77979 3.98109 7.81188 5.19082C7.84397 6.40054 7.44439 7.04375 6.79532 7.43604C6.14625 7.82833 4.30826 8.22061 3.12918 7.89405C2.05827 7.59671 1.40661 6.82309 1.29636 6.6838C1.28498 6.6692 1.27462 6.65459 1.26479 6.63894C1.1975 6.52783 0.924727 6.03903 1.01997 5.55076C1.12814 4.99467 1.78756 3.89397 2.08001 3.63262C2.14005 3.57889 2.19595 3.53194 2.24667 3.49177Z" stroke="#D31627" stroke-width="0.5" stroke-miterlimit="10"/>
<path d="M3.69681 3.57485L3.31984 3.96938C3.2498 4.04239 3.25675 4.15489 3.33482 4.2204C3.41288 4.2859 3.53319 4.2794 3.60324 4.2064L3.9802 3.81187C4.05025 3.73886 4.04329 3.62635 3.96523 3.56085C3.88663 3.49535 3.76632 3.50185 3.69681 3.57485Z" fill="#D31627"/>
<path d="M4.22783 3.62737L4.21712 4.17051C4.21492 4.27121 4.29651 4.34978 4.39875 4.34617C4.50099 4.34256 4.58555 4.25753 4.58774 4.15683L4.59846 3.61369C4.60066 3.51299 4.51907 3.43442 4.41683 3.43803C4.31419 3.442 4.22964 3.52703 4.22783 3.62737Z" fill="#D31627"/>
<path d="M4.85158 3.77846L5.2045 4.14C5.27011 4.20724 5.38639 4.2175 5.46507 4.16315C5.54376 4.10879 5.55415 4.01081 5.48854 3.94357L5.13562 3.58203C5.07001 3.51479 4.95373 3.50453 4.87505 3.55888C4.79688 3.61326 4.78647 3.71169 4.85158 3.77846Z" fill="#D31627"/>
</svg>
