<svg width="42" height="42" viewBox="0 0 42 42" fill="none" xmlns="http://www.w3.org/2000/svg">
<path d="M9.81549 41.0155H31.2684L34.4278 15.1199H6.35077L9.81549 41.0155Z" stroke="#D31828" stroke-width="0.3" stroke-miterlimit="10"/>
<path d="M6.35079 15.1199L4.90582 8.94276L14.35 1.29807H26.5124L35.8548 8.90821L34.4278 15.1199" stroke="#D31828" stroke-width="0.3" stroke-miterlimit="10"/>
<path d="M34.6254 14.2621L37.7648 9.20294L41 1.18424L40.3134 1.01553L35.1383 8.32485" stroke="#D31828" stroke-width="0.3" stroke-miterlimit="10"/>
<path d="M5.58637 8.20899L2.01986 2.87132H1L4.36294 11.7458L6.14919 14.2621" stroke="#D31828" stroke-width="0.3" stroke-miterlimit="10"/>
<path d="M8.99921 8.94277C15.9307 3.44249 15.9307 3.44249 15.9307 3.44249H24.8479L31.9809 8.94277L31.1148 12.9389H9.7636L8.99921 8.94277Z" stroke="#D31828" stroke-width="0.3" stroke-miterlimit="10"/>
<path d="M15 8.33231C18.0161 6.01553 18.0161 6.01553 18.0161 6.01553H21.8962L25 8.33231L24.6231 10.0155H15.3326L15 8.33231Z" fill="#D31B29" stroke="#D31828" stroke-width="0.3" stroke-miterlimit="10"/>
<path d="M7.9035 8.83911L15.4976 2.664H25.281L32.899 8.83911L31.8293 13.8739H9.12693L7.9035 8.83911Z" stroke="#D31828" stroke-width="0.3" stroke-miterlimit="10"/>
<path d="M8.40643 17.2481L11.4281 39.3203H29.6378L32.4919 17.2481H8.40643Z" stroke="#D31828" stroke-width="0.3" stroke-miterlimit="10"/>
<path d="M9.32251 18.0428L12.0408 38.3182H28.8216L31.5059 18.0428H9.32251Z" stroke="#D31828" stroke-width="0.3" stroke-miterlimit="10"/>
<path d="M13.0752 23.2911C12.9669 23.2083 12.9776 23.0335 13.0943 22.9668C14.287 22.2885 19.9601 19.0691 20.4164 19.0162C20.9279 18.9564 27.8722 22.8358 27.9953 23.2106C28.2819 24.0959 15.2591 24.949 13.0752 23.2911Z" fill="#D31B29" stroke="#D31A29" stroke-width="0.3" stroke-miterlimit="10"/>
<path d="M20.4143 28.3202C22.2182 28.3202 23.6806 26.8356 23.6806 25.0042C23.6806 23.1729 22.2182 21.6883 20.4143 21.6883C18.6104 21.6883 17.148 23.1729 17.148 25.0042C17.148 26.8356 18.6104 28.3202 20.4143 28.3202Z" stroke="#D31A29" stroke-width="0.3" stroke-miterlimit="10"/>
<path d="M21.4267 24.9077C21.3651 24.933 22.2671 24.5282 22.838 24.8272" stroke="#D31A29" stroke-width="0.3" stroke-miterlimit="10"/>
<path d="M19.2449 24.9077C19.3064 24.933 18.4044 24.5282 17.8335 24.8272" stroke="#D31A29" stroke-width="0.3" stroke-miterlimit="10"/>
<path d="M20.1618 27.4808L20.3252 27.7936L20.5438 27.4233C20.5438 27.4233 20.981 27.6763 20.9683 28.2167C20.9555 28.7594 20.4143 32.0155 20.4143 32.0155C20.4143 32.0155 19.6651 28.5156 19.8604 28.0442C20.0557 27.5728 20.1618 27.4808 20.1618 27.4808Z" fill="#D31B29" stroke="#D31A29" stroke-width="0.3" stroke-miterlimit="10"/>
<path d="M20.2912 26.0298C20.3591 26.1057 20.3507 26.2276 20.2827 26.3035C20.1915 26.4001 20.0068 26.5679 19.8286 26.5265C19.5717 26.4667 19.3871 26.6829 19.3319 27.1727C19.2767 27.6625 19.0178 29.5987 19.0178 29.5987C19.0178 29.5987 18.7992 27.7292 18.935 27.0163C19.0772 26.2805 19.5675 25.8321 19.9007 25.8804C20.1151 25.9103 20.2318 25.9654 20.2912 26.0298Z" fill="#D31B29" stroke="#D31A29" stroke-width="0.3" stroke-miterlimit="10"/>
<path d="M20.5883 26.0298C20.5204 26.1057 20.5289 26.2276 20.5968 26.3035C20.6881 26.4001 20.8727 26.5679 21.051 26.5265C21.3078 26.4667 21.4925 26.6829 21.5477 27.1727C21.6028 27.6625 21.8618 29.5987 21.8618 29.5987C21.8618 29.5987 22.0804 27.7292 21.9445 27.0163C21.8023 26.2805 21.3121 25.8321 20.9789 25.8804C20.7645 25.9103 20.6478 25.9654 20.5883 26.0298Z" fill="#D31B29" stroke="#D31A29" stroke-width="0.3" stroke-miterlimit="10"/>
<path d="M15.1143 41.0155C15.8787 39.3203 15.8787 39.3203 15.8787 39.3203H17.7887L17.2459 41.0155H15.1143Z" fill="#D31B29" stroke="#D31A29" stroke-width="0.3" stroke-miterlimit="10"/>
<path d="M19.549 39.3203C19.5231 41.0155 19.5231 41.0155 19.5231 41.0155H21.3672V39.3203H19.549Z" fill="#D31B29" stroke="#D31A29" stroke-width="0.3" stroke-miterlimit="10"/>
<path d="M23.0277 39.3203C23.6764 41.0155 23.6764 41.0155 23.6764 41.0155H25.74L25.0515 39.3203H23.0277Z" fill="#D31B29" stroke="#D31A29" stroke-width="0.3" stroke-miterlimit="10"/>
<path d="M26.8098 39.3203C27.5742 41.0155 27.5742 41.0155 27.5742 41.0155H29.4522L28.8734 39.3203H26.8098Z" fill="#D31B29" stroke="#D31A29" stroke-width="0.3" stroke-miterlimit="10"/>
<path d="M30.1029 35.7206C31.7494 37.0743 31.7494 37.0743 31.7494 37.0743L31.476 39.3203L29.8255 37.8731L30.1029 35.7206Z" fill="#D31B29" stroke="#D31A29" stroke-width="0.3" stroke-miterlimit="10"/>
<path d="M30.6178 31.7427L32.3342 32.2793L32.1027 34.1676L30.3703 33.6493L30.6178 31.7427Z" fill="#D31B29" stroke="#D31A29" stroke-width="0.3" stroke-miterlimit="10"/>
<path d="M31.1087 27.9478H32.8631L32.6296 29.8605H30.8613L31.1087 27.9478Z" fill="#D31B29" stroke="#D31A29" stroke-width="0.3" stroke-miterlimit="10"/>
<path d="M31.6756 23.5533L33.4498 23.1264L33.1944 25.2241L31.4161 25.5696L31.6756 23.5533Z" fill="#D31B29" stroke="#D31A29" stroke-width="0.3" stroke-miterlimit="10"/>
<path d="M32.3182 18.5916L34.1883 17.0753L33.845 19.8925L31.969 21.2889L32.3182 18.5916Z" fill="#D31B29" stroke="#D31A29" stroke-width="0.3" stroke-miterlimit="10"/>
<path d="M32.899 15.1199L31.5059 17.2481H29.1788L30.8094 15.1199H32.899Z" fill="#D31B29" stroke="#D31A29" stroke-width="0.3" stroke-miterlimit="10"/>
<path d="M27.0054 15.1199L26.0873 17.2481H23.7602L24.814 15.1199H27.0054Z" fill="#D31B29" stroke="#D31A29" stroke-width="0.3" stroke-miterlimit="10"/>
<path d="M19.4972 15.1199C19.4972 17.2481 19.4972 17.2481 19.4972 17.2481H21.3652V15.1199H19.4972Z" fill="#D31B29" stroke="#D31A29" stroke-width="0.3" stroke-miterlimit="10"/>
<path d="M13.8909 15.1199L14.7411 17.2481H16.9325L16.0484 15.1199H13.8909Z" fill="#D31B29" stroke="#D31A29" stroke-width="0.3" stroke-miterlimit="10"/>
<path d="M7.99731 15.1199L9.42432 17.2481H11.5479L10.2905 15.1199H7.99731Z" fill="#D31B29" stroke="#D31A29" stroke-width="0.3" stroke-miterlimit="10"/>
<path d="M6.6142 17.0936C8.61998 18.8091 8.61998 18.8091 8.61998 18.8091L8.96726 21.3418L6.98542 19.8661L6.6142 17.0936Z" fill="#D31B29" stroke="#D31A29" stroke-width="0.3" stroke-miterlimit="10"/>
<path d="M7.40656 23.0065C9.29259 23.7159 9.29259 23.7159 9.29259 23.7159L9.55205 25.6164L7.69395 25.1672L7.40656 23.0065Z" fill="#D31B29" stroke="#D31A29" stroke-width="0.3" stroke-miterlimit="10"/>
<path d="M8.07117 27.9742H9.87538L10.1288 29.8239L8.33062 29.9133L8.07117 27.9742Z" fill="#D31B29" stroke="#D31A29" stroke-width="0.3" stroke-miterlimit="10"/>
<path d="M8.64395 32.2651L10.4003 31.8118L10.6418 33.5802L8.89343 34.129L8.64395 32.2651Z" fill="#D31B29" stroke="#D31A29" stroke-width="0.3" stroke-miterlimit="10"/>
<path d="M9.32251 36.934L10.9212 35.6169L11.2165 37.7633L9.56001 39.115L9.32251 36.934Z" fill="#D31B29" stroke="#D31A29" stroke-width="0.3" stroke-miterlimit="10"/>
<path d="M11.973 39.3203L11.3104 41.0155H13.3142L14.0287 39.3203H11.973Z" fill="#D31B29" stroke="#D31A29" stroke-width="0.3" stroke-miterlimit="10"/>
<path d="M13.8909 15.1199L14.6314 13.8739H16.8228L16.1602 15.1199" fill="#D31B29"/>
<path d="M13.8909 15.1199L14.6314 13.8739H16.8228L16.1602 15.1199" stroke="#D31A29" stroke-width="0.3" stroke-miterlimit="10"/>
<path d="M21.3652 13.8739H19.4972V15.1199H21.3652V13.8739Z" fill="#D31B29" stroke="#D31A29" stroke-width="0.3" stroke-miterlimit="10"/>
<path d="M24.814 15.1199L24.0955 13.8739H26.261L27.0054 15.1199" fill="#D31B29"/>
<path d="M24.814 15.1199L24.0955 13.8739H26.261L27.0054 15.1199" stroke="#D31A29" stroke-width="0.3" stroke-miterlimit="10"/>
<path d="M29.7137 13.8739L30.8094 15.1199H32.899L31.8292 13.8739H29.7137Z" fill="#D31B29" stroke="#D31A29" stroke-width="0.3" stroke-miterlimit="10"/>
<path d="M32.6056 10.6298L35.0764 12.2966L34.6254 14.1341L32.1126 12.5344L32.6056 10.6298Z" fill="#D31B29" stroke="#D31A29" stroke-width="0.3" stroke-miterlimit="10"/>
<path d="M31.2804 7.42644H34.0326L35.8548 8.90822L35.759 9.32491H32.8471L32.899 8.83911L31.2804 7.42644Z" fill="#D31B29" stroke="#D31828" stroke-width="0.3" stroke-miterlimit="10"/>
<path d="M30.7894 4.78198L29.3924 5.99749L27.8935 4.78198L29.3405 3.60306L30.7894 4.78198Z" fill="#D31B29" stroke="#D31828" stroke-width="0.3" stroke-miterlimit="10"/>
<path d="M25.5604 1.29807L24.7082 2.66399H25.281L26.3188 3.50549L27.3347 1.9668L26.5124 1.29807H25.5604Z" fill="#D31B29" stroke="#D31828" stroke-width="0.3" stroke-miterlimit="10"/>
<path d="M21.3552 1.29807H19.4453V2.59894H21.3552V1.29807Z" fill="#D31B29" stroke="#D31828" stroke-width="0.3" stroke-miterlimit="10"/>
<path d="M14.7531 3.19247L14.0226 1.56231L14.35 1.29807H15.9686L16.5154 2.66399H15.4975L14.7771 3.24938" fill="#D31B29"/>
<path d="M14.7531 3.19247L14.0226 1.56231L14.35 1.29807H15.9686L16.5154 2.66399H15.4975L14.7771 3.24938" stroke="#D31828" stroke-width="0.3" stroke-miterlimit="10"/>
<path d="M11.7674 3.3876C13.1186 4.5584 13.1186 4.5584 13.1186 4.5584L11.6556 5.78813L10.3204 4.56043L11.7674 3.3876Z" fill="#D31B29" stroke="#D31828" stroke-width="0.3" stroke-miterlimit="10"/>
<path d="M6.27894 7.83294L9.21278 7.77603L7.90353 8.83909L8.1051 9.6684L5.08545 9.70906L4.90582 8.94276L6.27894 7.83294Z" fill="#D31B29" stroke="#D31828" stroke-width="0.3" stroke-miterlimit="10"/>
<path d="M8.31863 10.5404L5.69614 12.325L6.16914 14.3455L8.82756 12.6421L8.31863 10.5404Z" fill="#D31B29" stroke="#D31828" stroke-width="0.3" stroke-miterlimit="10"/>
<path d="M8.99921 13.7255L7.99731 15.1199H10.2905L11.013 13.8739H9.12694L8.99921 13.7255Z" fill="#D31B29" stroke="#D31828" stroke-width="0.3" stroke-miterlimit="10"/>
</svg>
